<?xml version="1.0" encoding="UTF-8" standalone="no"?>
<!-- Created with Inkscape (http://www.inkscape.org/) -->

<svg
   xmlns:dc="http://purl.org/dc/elements/1.1/"
   xmlns:cc="http://creativecommons.org/ns#"
   xmlns:rdf="http://www.w3.org/1999/02/22-rdf-syntax-ns#"
   xmlns:svg="http://www.w3.org/2000/svg"
   xmlns="http://www.w3.org/2000/svg"
   xmlns:sodipodi="http://sodipodi.sourceforge.net/DTD/sodipodi-0.dtd"
   xmlns:inkscape="http://www.inkscape.org/namespaces/inkscape"
   width="154.55132mm"
   height="33.425034mm"
   viewBox="0 0 547.62277 118.43516"
   id="svg2"
   version="1.1"
   inkscape:version="0.91 r13725"
   sodipodi:docname="pfp_logo.svg"
   inkscape:export-filename="/home/sam/git/pfp/website/img/pfp_logo.png"
   inkscape:export-xdpi="506.16425"
   inkscape:export-ydpi="506.16425">
  <defs
     id="defs4" />
  <sodipodi:namedview
     id="base"
     pagecolor="#ffffff"
     bordercolor="#666666"
     borderopacity="1.0"
     inkscape:pageopacity="0.0"
     inkscape:pageshadow="2"
     inkscape:zoom="1.4142136"
     inkscape:cx="224.08377"
     inkscape:cy="48.339179"
     inkscape:document-units="px"
     inkscape:current-layer="g4151"
     showgrid="false"
     inkscape:window-width="1920"
     inkscape:window-height="1023"
     inkscape:window-x="0"
     inkscape:window-y="27"
     inkscape:window-maximized="1"
     fit-margin-top="0"
     fit-margin-left="0"
     fit-margin-right="0"
     fit-margin-bottom="0" />
  <metadata
     id="metadata7">
    <rdf:RDF>
      <cc:Work
         rdf:about="">
        <dc:format>image/svg+xml</dc:format>
        <dc:type
           rdf:resource="http://purl.org/dc/dcmitype/StillImage" />
        <dc:title></dc:title>
      </cc:Work>
    </rdf:RDF>
  </metadata>
  <g
     inkscape:label="Layer 1"
     inkscape:groupmode="layer"
     id="layer1"
     transform="translate(-63.041258,-217.13853)">
    <path
       style="opacity:1;fill:#d8b600;fill-opacity:1;fill-rule:evenodd;stroke:#d8b600;stroke-width:0.25253814;stroke-linecap:round;stroke-linejoin:round;stroke-miterlimit:4;stroke-dasharray:none;stroke-opacity:1"
       d=""
       id="path4229"
       inkscape:connector-curvature="0" />
    <g
       id="g4372"
       inkscape:export-xdpi="43.700001"
       inkscape:export-ydpi="43.700001">
      <g
         id="g4151">
        <rect
           style="opacity:1;fill:#d8b600;fill-opacity:1;fill-rule:evenodd;stroke:#ffffff;stroke-width:0;stroke-linecap:round;stroke-linejoin:round;stroke-miterlimit:4;stroke-dasharray:none;stroke-opacity:1"
           id="rect4171"
           width="547.02924"
           height="5.0424123"
           x="63.634789"
           y="299.06912" />
        <g
           transform="translate(-49.390168,-68.084295)"
           style="font-style:normal;font-weight:normal;font-size:40px;line-height:125%;font-family:sans-serif;letter-spacing:0px;word-spacing:0px;fill:#b3b3b3;fill-opacity:1;stroke:none;stroke-width:1px;stroke-linecap:butt;stroke-linejoin:miter;stroke-opacity:1"
           id="flowRoot4173">
          <path
             d="m 351.60693,385.31082 0,2.09961 q -0.95214,-0.5249 -1.9165,-0.78125 -0.95215,-0.26856 -1.92871,-0.26856 -2.18506,0 -3.39356,1.39161 -1.20849,1.37939 -1.20849,3.88183 0,2.50244 1.20849,3.89404 1.2085,1.3794 3.39356,1.3794 0.97656,0 1.92871,-0.25635 0.96436,-0.26855 1.9165,-0.79346 l 0,2.0752 q -0.93994,0.43945 -1.95312,0.65918 -1.00098,0.21973 -2.13623,0.21973 -3.08838,0 -4.90723,-1.94092 -1.81885,-1.94092 -1.81885,-5.23682 0,-3.34473 1.83106,-5.26123 1.84326,-1.9165 5.0415,-1.9165 1.0376,0 2.02637,0.21972 0.98877,0.20752 1.9165,0.63477 z"
             style="font-style:normal;font-variant:normal;font-weight:normal;font-stretch:normal;font-size:25px;font-family:Khmer;-inkscape-font-specification:Khmer;fill:#b3b3b3"
             id="path4293" />
          <path
             d="m 366.90234,390.20584 0,8.25195 -2.24609,0 0,-8.17871 q 0,-1.94092 -0.75684,-2.90527 -0.75683,-0.96436 -2.2705,-0.96436 -1.81885,0 -2.86866,1.15967 -1.0498,1.15967 -1.0498,3.16162 l 0,7.72705 -2.2583,0 0,-18.99414 2.2583,0 0,7.44629 q 0.80566,-1.23291 1.89209,-1.84326 1.09863,-0.61035 2.52685,-0.61035 2.35596,0 3.56446,1.46484 1.20849,1.45264 1.20849,4.28467 z"
             style="font-style:normal;font-variant:normal;font-weight:normal;font-stretch:normal;font-size:25px;font-family:Khmer;-inkscape-font-specification:Khmer;fill:#b3b3b3"
             id="path4295" />
          <path
             d="m 377.62012,391.58523 q -2.72217,0 -3.77198,0.62256 -1.0498,0.62256 -1.0498,2.12402 0,1.19629 0.78125,1.9043 0.79346,0.6958 2.14844,0.6958 1.86767,0 2.99072,-1.31836 1.13525,-1.33056 1.13525,-3.52783 l 0,-0.50049 -2.23388,0 z m 4.47998,-0.92773 0,7.80029 -2.2461,0 0,-2.07519 q -0.76904,1.24511 -1.9165,1.84326 -1.14746,0.58594 -2.80762,0.58594 -2.09961,0 -3.34472,-1.17188 -1.23291,-1.18408 -1.23291,-3.16162 0,-2.30713 1.53808,-3.479 1.55029,-1.17188 4.61426,-1.17188 l 3.14941,0 0,-0.21973 q 0,-1.55029 -1.02539,-2.39257 -1.01318,-0.8545 -2.85644,-0.8545 -1.17188,0 -2.28272,0.28077 -1.11084,0.28076 -2.13623,0.84228 l 0,-2.07519 q 1.23291,-0.47608 2.39258,-0.70801 1.15967,-0.24414 2.2583,-0.24414 2.96631,0 4.43115,1.53808 1.46485,1.53809 1.46485,4.66309 z"
             style="font-style:normal;font-variant:normal;font-weight:normal;font-stretch:normal;font-size:25px;font-family:Khmer;-inkscape-font-specification:Khmer;fill:#b3b3b3"
             id="path4297" />
          <path
             d="m 386.73877,379.46365 2.24609,0 0,18.99414 -2.24609,0 0,-18.99414 z"
             style="font-style:normal;font-variant:normal;font-weight:normal;font-stretch:normal;font-size:25px;font-family:Khmer;-inkscape-font-specification:Khmer;fill:#b3b3b3"
             id="path4299" />
          <path
             d="m 393.67236,379.46365 2.2461,0 0,18.99414 -2.2461,0 0,-18.99414 z"
             style="font-style:normal;font-variant:normal;font-weight:normal;font-stretch:normal;font-size:25px;font-family:Khmer;-inkscape-font-specification:Khmer;fill:#b3b3b3"
             id="path4301" />
          <path
             d="m 412.30029,391.06033 0,1.09863 -10.32715,0 q 0.14649,2.31934 1.39161,3.54004 1.25732,1.2085 3.49121,1.2085 1.29394,0 2.50244,-0.31738 1.2207,-0.31739 2.41699,-0.95215 l 0,2.12402 q -1.2085,0.5127 -2.47803,0.78125 -1.26953,0.26856 -2.57568,0.26856 -3.27148,0 -5.18799,-1.9043 -1.9043,-1.9043 -1.9043,-5.15137 0,-3.35693 1.80665,-5.32226 1.81884,-1.97754 4.89501,-1.97754 2.75879,0 4.35791,1.78222 1.61133,1.77002 1.61133,4.82178 z m -2.24609,-0.65918 q -0.0244,-1.84326 -1.0376,-2.94189 -1.00098,-1.09864 -2.66113,-1.09864 -1.87988,0 -3.01514,1.06202 -1.12304,1.06201 -1.29394,2.99072 l 8.00781,-0.0122 z"
             style="font-style:normal;font-variant:normal;font-weight:normal;font-stretch:normal;font-size:25px;font-family:Khmer;-inkscape-font-specification:Khmer;fill:#b3b3b3"
             id="path4303" />
          <path
             d="m 427.35156,390.20584 0,8.25195 -2.24609,0 0,-8.17871 q 0,-1.94092 -0.75684,-2.90527 -0.75683,-0.96436 -2.27051,-0.96436 -1.81884,0 -2.86865,1.15967 -1.0498,1.15967 -1.0498,3.16162 l 0,7.72705 -2.2583,0 0,-13.67187 2.2583,0 0,2.12402 q 0.80566,-1.23291 1.89209,-1.84326 1.09863,-0.61035 2.52685,-0.61035 2.35596,0 3.56446,1.46484 1.20849,1.45264 1.20849,4.28467 z"
             style="font-style:normal;font-variant:normal;font-weight:normal;font-stretch:normal;font-size:25px;font-family:Khmer;-inkscape-font-specification:Khmer;fill:#b3b3b3"
             id="path4305" />
          <path
             d="m 440.85254,391.46316 q 0,-2.4414 -1.01318,-3.78418 -1.00098,-1.34277 -2.81983,-1.34277 -1.80664,0 -2.81982,1.34277 -1.00098,1.34278 -1.00098,3.78418 0,2.4292 1.00098,3.77198 1.01318,1.34277 2.81982,1.34277 1.81885,0 2.81983,-1.34277 1.01318,-1.34278 1.01318,-3.77198 z m 2.24609,5.29785 q 0,3.49122 -1.55029,5.18799 -1.55029,1.70899 -4.74854,1.70899 -1.18408,0 -2.23388,-0.18311 -1.04981,-0.1709 -2.03858,-0.53711 l 0,-2.18506 q 0.98877,0.53711 1.95313,0.79346 0.96435,0.25635 1.96533,0.25635 2.20947,0 3.30811,-1.15967 1.09863,-1.14746 1.09863,-3.479 l 0,-1.11084 q -0.6958,1.20849 -1.78223,1.80664 -1.08642,0.59814 -2.6001,0.59814 -2.51464,0 -4.05273,-1.9165 -1.53809,-1.91651 -1.53809,-5.07813 0,-3.17383 1.53809,-5.09033 1.53809,-1.9165 4.05273,-1.9165 1.51368,0 2.6001,0.59814 1.08643,0.59815 1.78223,1.80664 l 0,-2.07519 2.24609,0 0,11.97509 z"
             style="font-style:normal;font-variant:normal;font-weight:normal;font-stretch:normal;font-size:25px;font-family:Khmer;-inkscape-font-specification:Khmer;fill:#b3b3b3"
             id="path4307" />
          <path
             d="m 459.41943,391.06033 0,1.09863 -10.32714,0 q 0.14648,2.31934 1.3916,3.54004 1.25732,1.2085 3.49121,1.2085 1.29394,0 2.50244,-0.31738 1.2207,-0.31739 2.41699,-0.95215 l 0,2.12402 q -1.20849,0.5127 -2.47803,0.78125 -1.26953,0.26856 -2.57568,0.26856 -3.27148,0 -5.18799,-1.9043 -1.90429,-1.9043 -1.90429,-5.15137 0,-3.35693 1.80664,-5.32226 1.81884,-1.97754 4.89502,-1.97754 2.75878,0 4.35791,1.78222 1.61132,1.77002 1.61132,4.82178 z m -2.24609,-0.65918 q -0.0244,-1.84326 -1.0376,-2.94189 -1.00097,-1.09864 -2.66113,-1.09864 -1.87988,0 -3.01514,1.06202 -1.12304,1.06201 -1.29394,2.99072 l 8.00781,-0.0122 z"
             style="font-style:normal;font-variant:normal;font-weight:normal;font-stretch:normal;font-size:25px;font-family:Khmer;-inkscape-font-specification:Khmer;fill:#b3b3b3"
             id="path4309" />
          <path
             d="m 481.70947,387.41043 q 0.84229,-1.51367 2.01416,-2.23389 1.17188,-0.72021 2.75879,-0.72021 2.13623,0 3.2959,1.50146 1.15967,1.48926 1.15967,4.24805 l 0,8.25195 -2.2583,0 0,-8.17871 q 0,-1.96533 -0.6958,-2.91748 -0.6958,-0.95215 -2.12403,-0.95215 -1.7456,0 -2.75879,1.15967 -1.01318,1.15967 -1.01318,3.16162 l 0,7.72705 -2.2583,0 0,-8.17871 q 0,-1.97754 -0.6958,-2.91748 -0.6958,-0.95215 -2.14844,-0.95215 -1.72119,0 -2.73437,1.17188 -1.01319,1.15966 -1.01319,3.14941 l 0,7.72705 -2.2583,0 0,-13.67187 2.2583,0 0,2.12402 q 0.76905,-1.25732 1.84326,-1.85547 1.07422,-0.59814 2.55127,-0.59814 1.48926,0 2.52686,0.75683 1.0498,0.75684 1.55029,2.19727 z"
             style="font-style:normal;font-variant:normal;font-weight:normal;font-stretch:normal;font-size:25px;font-family:Khmer;-inkscape-font-specification:Khmer;fill:#b3b3b3"
             id="path4311" />
          <path
             d="m 507.12451,391.06033 0,1.09863 -10.32715,0 q 0.14649,2.31934 1.3916,3.54004 1.25733,1.2085 3.49122,1.2085 1.29394,0 2.50244,-0.31738 1.2207,-0.31739 2.41699,-0.95215 l 0,2.12402 q -1.2085,0.5127 -2.47803,0.78125 -1.26953,0.26856 -2.57568,0.26856 -3.27149,0 -5.18799,-1.9043 -1.9043,-1.9043 -1.9043,-5.15137 0,-3.35693 1.80664,-5.32226 1.81885,-1.97754 4.89502,-1.97754 2.75879,0 4.35791,1.78222 1.61133,1.77002 1.61133,4.82178 z m -2.24609,-0.65918 q -0.0244,-1.84326 -1.0376,-2.94189 -1.00098,-1.09864 -2.66113,-1.09864 -1.87989,0 -3.01514,1.06202 -1.12305,1.06201 -1.29394,2.99072 l 8.00781,-0.0122 z"
             style="font-style:normal;font-variant:normal;font-weight:normal;font-stretch:normal;font-size:25px;font-family:Khmer;-inkscape-font-specification:Khmer;fill:#b3b3b3"
             id="path4313" />
          <path
             d="m 522.17578,390.20584 0,8.25195 -2.24609,0 0,-8.17871 q 0,-1.94092 -0.75684,-2.90527 -0.75683,-0.96436 -2.27051,-0.96436 -1.81884,0 -2.86865,1.15967 -1.0498,1.15967 -1.0498,3.16162 l 0,7.72705 -2.2583,0 0,-13.67187 2.2583,0 0,2.12402 q 0.80566,-1.23291 1.89209,-1.84326 1.09863,-0.61035 2.52685,-0.61035 2.35596,0 3.56446,1.46484 1.20849,1.45264 1.20849,4.28467 z"
             style="font-style:normal;font-variant:normal;font-weight:normal;font-stretch:normal;font-size:25px;font-family:Khmer;-inkscape-font-specification:Khmer;fill:#b3b3b3"
             id="path4315" />
          <path
             d="m 528.90186,380.90408 0,3.88184 4.62646,0 0,1.7456 -4.62646,0 0,7.42188 q 0,1.67236 0.45166,2.14843 0.46386,0.47608 1.86767,0.47608 l 2.30713,0 0,1.87988 -2.30713,0 q -2.6001,0 -3.58887,-0.96435 -0.98877,-0.97657 -0.98877,-3.54004 l 0,-7.42188 -1.64794,0 0,-1.7456 1.64794,0 0,-3.88184 2.25831,0 z"
             style="font-style:normal;font-variant:normal;font-weight:normal;font-stretch:normal;font-size:25px;font-family:Khmer;-inkscape-font-specification:Khmer;fill:#b3b3b3"
             id="path4317" />
          <path
             d="m 541.79248,386.36062 q -1.80664,0 -2.85644,1.41602 -1.04981,1.40381 -1.04981,3.85742 0,2.45361 1.0376,3.86963 1.0498,1.40381 2.86865,1.40381 1.79443,0 2.84424,-1.41602 1.0498,-1.41601 1.0498,-3.85742 0,-2.4292 -1.0498,-3.84521 -1.04981,-1.42823 -2.84424,-1.42823 z m 0,-1.90429 q 2.92969,0 4.60205,1.90429 1.67236,1.9043 1.67236,5.27344 0,3.35693 -1.67236,5.27344 -1.67236,1.9043 -4.60205,1.9043 -2.94189,0 -4.61426,-1.9043 -1.66015,-1.91651 -1.66015,-5.27344 0,-3.36914 1.66015,-5.27344 1.67237,-1.90429 4.61426,-1.90429 z"
             style="font-style:normal;font-variant:normal;font-weight:normal;font-stretch:normal;font-size:25px;font-family:Khmer;-inkscape-font-specification:Khmer;fill:#b3b3b3"
             id="path4319" />
          <path
             d="m 559.7002,386.88553 q -0.37842,-0.21973 -0.83008,-0.31739 -0.43946,-0.10986 -0.97657,-0.10986 -1.90429,0 -2.92968,1.24512 -1.01319,1.23291 -1.01319,3.55224 l 0,7.20215 -2.2583,0 0,-13.67187 2.2583,0 0,2.12402 q 0.70801,-1.24512 1.84327,-1.84326 1.13525,-0.61035 2.75878,-0.61035 0.23194,0 0.5127,0.0366 0.28076,0.0244 0.62256,0.0854 l 0.0122,2.30713 z"
             style="font-style:normal;font-variant:normal;font-weight:normal;font-stretch:normal;font-size:25px;font-family:Khmer;-inkscape-font-specification:Khmer;fill:#b3b3b3"
             id="path4321" />
          <path
             d="m 581.73389,391.06033 0,1.09863 -10.32715,0 q 0.14648,2.31934 1.3916,3.54004 1.25732,1.2085 3.49121,1.2085 1.29395,0 2.50244,-0.31738 1.22071,-0.31739 2.41699,-0.95215 l 0,2.12402 q -1.20849,0.5127 -2.47802,0.78125 -1.26953,0.26856 -2.57569,0.26856 -3.27148,0 -5.18798,-1.9043 -1.9043,-1.9043 -1.9043,-5.15137 0,-3.35693 1.80664,-5.32226 1.81885,-1.97754 4.89502,-1.97754 2.75879,0 4.35791,1.78222 1.61133,1.77002 1.61133,4.82178 z m -2.2461,-0.65918 q -0.0244,-1.84326 -1.03759,-2.94189 -1.00098,-1.09864 -2.66114,-1.09864 -1.87988,0 -3.01513,1.06202 -1.12305,1.06201 -1.29395,2.99072 l 8.00781,-0.0122 z"
             style="font-style:normal;font-variant:normal;font-weight:normal;font-stretch:normal;font-size:25px;font-family:Khmer;-inkscape-font-specification:Khmer;fill:#b3b3b3"
             id="path4323" />
          <path
             d="m 596.78516,390.20584 0,8.25195 -2.2461,0 0,-8.17871 q 0,-1.94092 -0.75683,-2.90527 -0.75684,-0.96436 -2.27051,-0.96436 -1.81885,0 -2.86865,1.15967 -1.04981,1.15967 -1.04981,3.16162 l 0,7.72705 -2.2583,0 0,-13.67187 2.2583,0 0,2.12402 q 0.80567,-1.23291 1.89209,-1.84326 1.09863,-0.61035 2.52686,-0.61035 2.35595,0 3.56445,1.46484 1.2085,1.45264 1.2085,4.28467 z"
             style="font-style:normal;font-variant:normal;font-weight:normal;font-stretch:normal;font-size:25px;font-family:Khmer;-inkscape-font-specification:Khmer;fill:#b3b3b3"
             id="path4325" />
          <path
             d="m 610.28613,391.46316 q 0,-2.4414 -1.01318,-3.78418 -1.00098,-1.34277 -2.81983,-1.34277 -1.80664,0 -2.81982,1.34277 -1.00098,1.34278 -1.00098,3.78418 0,2.4292 1.00098,3.77198 1.01318,1.34277 2.81982,1.34277 1.81885,0 2.81983,-1.34277 1.01318,-1.34278 1.01318,-3.77198 z m 2.2461,5.29785 q 0,3.49122 -1.5503,5.18799 -1.55029,1.70899 -4.74853,1.70899 -1.18408,0 -2.23389,-0.18311 -1.0498,-0.1709 -2.03857,-0.53711 l 0,-2.18506 q 0.98877,0.53711 1.95312,0.79346 0.96436,0.25635 1.96533,0.25635 2.20948,0 3.30811,-1.15967 1.09863,-1.14746 1.09863,-3.479 l 0,-1.11084 q -0.6958,1.20849 -1.78222,1.80664 -1.08643,0.59814 -2.6001,0.59814 -2.51465,0 -4.05274,-1.9165 -1.53808,-1.91651 -1.53808,-5.07813 0,-3.17383 1.53808,-5.09033 1.53809,-1.9165 4.05274,-1.9165 1.51367,0 2.6001,0.59814 1.08642,0.59815 1.78222,1.80664 l 0,-2.07519 2.2461,0 0,11.97509 z"
             style="font-style:normal;font-variant:normal;font-weight:normal;font-stretch:normal;font-size:25px;font-family:Khmer;-inkscape-font-specification:Khmer;fill:#b3b3b3"
             id="path4327" />
          <path
             d="m 623.37207,391.58523 q -2.72217,0 -3.77197,0.62256 -1.04981,0.62256 -1.04981,2.12402 0,1.19629 0.78125,1.9043 0.79346,0.6958 2.14844,0.6958 1.86768,0 2.99072,-1.31836 1.13526,-1.33056 1.13526,-3.52783 l 0,-0.50049 -2.23389,0 z m 4.47998,-0.92773 0,7.80029 -2.24609,0 0,-2.07519 q -0.76905,1.24511 -1.91651,1.84326 -1.14746,0.58594 -2.80761,0.58594 -2.09961,0 -3.34473,-1.17188 -1.23291,-1.18408 -1.23291,-3.16162 0,-2.30713 1.53809,-3.479 1.55029,-1.17188 4.61425,-1.17188 l 3.14942,0 0,-0.21973 q 0,-1.55029 -1.02539,-2.39257 -1.01319,-0.8545 -2.85645,-0.8545 -1.17187,0 -2.28271,0.28077 -1.11084,0.28076 -2.13623,0.84228 l 0,-2.07519 q 1.23291,-0.47608 2.39257,-0.70801 1.15967,-0.24414 2.2583,-0.24414 2.96631,0 4.43116,1.53808 1.46484,1.53809 1.46484,4.66309 z"
             style="font-style:normal;font-variant:normal;font-weight:normal;font-stretch:normal;font-size:25px;font-family:Khmer;-inkscape-font-specification:Khmer;fill:#b3b3b3"
             id="path4329" />
          <path
             d="m 641.4873,391.46316 q 0,-2.4414 -1.01318,-3.78418 -1.00098,-1.34277 -2.81982,-1.34277 -1.80664,0 -2.81983,1.34277 -1.00097,1.34278 -1.00097,3.78418 0,2.4292 1.00097,3.77198 1.01319,1.34277 2.81983,1.34277 1.81884,0 2.81982,-1.34277 1.01318,-1.34278 1.01318,-3.77198 z m 2.2461,5.29785 q 0,3.49122 -1.55029,5.18799 -1.5503,1.70899 -4.74854,1.70899 -1.18408,0 -2.23389,-0.18311 -1.0498,-0.1709 -2.03857,-0.53711 l 0,-2.18506 q 0.98877,0.53711 1.95312,0.79346 0.96436,0.25635 1.96534,0.25635 2.20947,0 3.3081,-1.15967 1.09863,-1.14746 1.09863,-3.479 l 0,-1.11084 q -0.6958,1.20849 -1.78222,1.80664 -1.08643,0.59814 -2.6001,0.59814 -2.51465,0 -4.05273,-1.9165 -1.53809,-1.91651 -1.53809,-5.07813 0,-3.17383 1.53809,-5.09033 1.53808,-1.9165 4.05273,-1.9165 1.51367,0 2.6001,0.59814 1.08642,0.59815 1.78222,1.80664 l 0,-2.07519 2.2461,0 0,11.97509 z"
             style="font-style:normal;font-variant:normal;font-weight:normal;font-stretch:normal;font-size:25px;font-family:Khmer;-inkscape-font-specification:Khmer;fill:#b3b3b3"
             id="path4331" />
          <path
             d="m 660.0542,391.06033 0,1.09863 -10.32715,0 q 0.14649,2.31934 1.3916,3.54004 1.25733,1.2085 3.49121,1.2085 1.29395,0 2.50244,-0.31738 1.22071,-0.31739 2.417,-0.95215 l 0,2.12402 q -1.2085,0.5127 -2.47803,0.78125 -1.26953,0.26856 -2.57568,0.26856 -3.27149,0 -5.18799,-1.9043 -1.9043,-1.9043 -1.9043,-5.15137 0,-3.35693 1.80664,-5.32226 1.81885,-1.97754 4.89502,-1.97754 2.75879,0 4.35791,1.78222 1.61133,1.77002 1.61133,4.82178 z m -2.24609,-0.65918 q -0.0244,-1.84326 -1.0376,-2.94189 -1.00098,-1.09864 -2.66114,-1.09864 -1.87988,0 -3.01513,1.06202 -1.12305,1.06201 -1.29395,2.99072 l 8.00782,-0.0122 z"
             style="font-style:normal;font-variant:normal;font-weight:normal;font-stretch:normal;font-size:25px;font-family:Khmer;-inkscape-font-specification:Khmer;fill:#b3b3b3"
             id="path4333" />
        </g>
        <g
           transform="translate(-50.898439,-33.233861)"
           style="font-style:normal;font-weight:normal;font-size:40px;line-height:125%;font-family:sans-serif;letter-spacing:0px;word-spacing:0px;fill:#ffffff;fill-opacity:1;stroke:none;stroke-width:1px;stroke-linecap:butt;stroke-linejoin:miter;stroke-opacity:1"
           id="flowRoot4136">
          <path
             d="m 114.82695,321.82391 0,-3.3075 q 0,-1.0125 1.0125,-1.0125 l 3.51,0 0,-35.1 -3.51,0 q -1.0125,0 -1.0125,-1.0125 l 0,-3.375 q 0,-1.0125 1.0125,-1.0125 8.64,-0.405 14.1075,-0.405 17.955,0 17.955,13.1625 0,6.8175 -4.3875,10.8 -4.3875,3.9825 -11.9475,3.9825 -2.97,0 -4.6575,-0.2025 l 0,13.1625 5.6025,0 q 1.0125,0 1.0125,1.0125 l 0,3.3075 q 0,1.0125 -1.0125,1.0125 l -16.6725,0 q -1.0125,0 -1.0125,-1.0125 z m 12.0825,-39.6225 0,16.9425 q 0.6075,0.0675 3.105,0.0675 10.125,0 10.125,-8.9775 0,-3.24 -1.6875,-5.0625 -1.62,-1.89 -3.8475,-2.43 -2.16,-0.54 -5.265,-0.54 l -2.43,0 z"
             style="font-style:normal;font-variant:normal;font-weight:normal;font-stretch:normal;font-size:67.5px;font-family:'Crete Round';-inkscape-font-specification:'Crete Round';fill:#ffffff"
             id="path4270" />
          <path
             d="m 184.65254,317.50391 2.97,0 q 1.0125,0 1.0125,1.0125 l 0,3.3075 q 0,1.0125 -1.0125,1.0125 l -7.56,0 q -0.81,0 -1.0125,-1.0125 l -0.6075,-3.78 q -4.32,5.6025 -11.34,5.6025 -10.935,0 -10.935,-11.475 l 0,-17.2125 -3.5775,0 q -1.0125,0 -1.0125,-1.0125 l 0,-3.51 q 0,-1.0125 1.0125,-1.0125 l 10.125,0 q 1.0125,0 1.0125,1.0125 l 0,19.71 q 0,4.05 1.0125,5.805 1.08,1.6875 4.455,1.6875 3.4425,0 5.67,-2.025 2.2275,-2.025 2.2275,-4.59 l 0,-16.065 -4.2525,0 q -1.0125,0 -1.0125,-1.0125 l 0,-3.51 q 0,-1.0125 1.0125,-1.0125 l 10.8,0 q 1.0125,0 1.0125,1.0125 l 0,27.0675 z"
             style="font-style:normal;font-variant:normal;font-weight:normal;font-stretch:normal;font-size:67.5px;font-family:'Crete Round';-inkscape-font-specification:'Crete Round';fill:#ffffff"
             id="path4272" />
          <path
             d="m 204.20117,295.22891 q 1.1475,-2.7 3.7125,-4.59 2.565,-1.9575 5.6025,-1.9575 3.0375,0 4.6575,0.54 0.81,0.27 0.81,1.215 l 0,9.1125 q 0,1.0125 -1.0125,1.0125 l -4.3875,0 q -1.0125,0 -0.945,-1.0125 l 0.27,-3.915 q -0.3375,-0.0675 -1.1475,-0.0675 -3.105,0 -5.13,2.565 -2.025,2.4975 -2.025,6.75 l 0,12.6225 7.425,0 q 1.0125,0 1.0125,1.0125 l 0,3.3075 q 0,1.0125 -1.0125,1.0125 l -18.5625,0 q -1.0125,0 -1.0125,-1.0125 l 0,-3.3075 q 0,-1.0125 1.0125,-1.0125 l 3.5775,0 0,-22.545 -3.645,0 q -1.0125,0 -1.0125,-1.0125 l 0,-3.51 q 0,-1.0125 1.0125,-1.0125 l 8.91,0 q 0.945,0 1.1475,1.0125 l 0.7425,4.7925 z"
             style="font-style:normal;font-variant:normal;font-weight:normal;font-stretch:normal;font-size:67.5px;font-family:'Crete Round';-inkscape-font-specification:'Crete Round';fill:#ffffff"
             id="path4274" />
          <path
             d="m 253.51309,317.50391 2.9025,0 q 1.0125,0 1.0125,1.0125 l 0,3.3075 q 0,1.0125 -1.0125,1.0125 l -7.6275,0 q -0.8775,0 -1.0125,-1.0125 l -0.54,-3.9825 q -3.4425,5.805 -11.0025,5.805 -6.615,0 -10.1925,-4.1175 -3.5775,-4.185 -3.5775,-12.8925 0,-8.775 4.1175,-13.365 4.185,-4.59 10.7325,-4.59 2.97,0 5.265,1.1475 2.295,1.08 3.375,2.6325 l 0,-14.3775 -3.5775,0 q -1.0125,0 -1.0125,-1.0125 l 0,-3.5775 q 0,-1.0125 1.0125,-1.0125 l 10.125,0 q 1.0125,0 1.0125,1.0125 l 0,44.01 z m -7.56,-7.3575 0,-11.88 q -0.8775,-1.35 -3.105,-2.4975 -2.16,-1.1475 -4.3875,-1.1475 -8.37,0 -8.37,11.34 0,8.7075 3.78,10.8675 1.62,0.945 4.455,0.945 2.835,0 5.1975,-2.0925 2.43,-2.0925 2.43,-5.535 z"
             style="font-style:normal;font-variant:normal;font-weight:normal;font-stretch:normal;font-size:67.5px;font-family:'Crete Round';-inkscape-font-specification:'Crete Round';fill:#ffffff"
             id="path4276" />
          <path
             d="m 293.94453,317.50391 2.97,0 q 1.0125,0 1.0125,1.0125 l 0,3.3075 q 0,1.0125 -1.0125,1.0125 l -7.56,0 q -0.81,0 -1.0125,-1.0125 l -0.6075,-3.78 q -4.32,5.6025 -11.34,5.6025 -10.935,0 -10.935,-11.475 l 0,-17.2125 -3.5775,0 q -1.0125,0 -1.0125,-1.0125 l 0,-3.51 q 0,-1.0125 1.0125,-1.0125 l 10.125,0 q 1.0125,0 1.0125,1.0125 l 0,19.71 q 0,4.05 1.0125,5.805 1.08,1.6875 4.455,1.6875 3.4425,0 5.67,-2.025 2.2275,-2.025 2.2275,-4.59 l 0,-16.065 -4.2525,0 q -1.0125,0 -1.0125,-1.0125 l 0,-3.51 q 0,-1.0125 1.0125,-1.0125 l 10.8,0 q 1.0125,0 1.0125,1.0125 l 0,27.0675 z"
             style="font-style:normal;font-variant:normal;font-weight:normal;font-stretch:normal;font-size:67.5px;font-family:'Crete Round';-inkscape-font-specification:'Crete Round';fill:#ffffff"
             id="path4278" />
          <path
             d="m 317.88066,323.64641 q -8.0325,0 -11.8125,-4.6575 -3.7125,-4.725 -3.7125,-12.42 0,-7.7625 3.9825,-12.825 3.9825,-5.0625 11.475,-5.0625 3.7125,0 6.345,1.4175 2.7,1.35 4.1175,3.7125 2.7,4.59 2.7,10.5975 0,2.835 -0.27,3.105 -0.27,0.27 -1.0125,0.27 l -19.845,0 q 0.3375,4.86 2.3625,7.56 2.0925,2.6325 7.155,2.6325 3.7125,0 7.6275,-1.755 0.945,-0.4725 1.35,0.54 l 1.2825,3.105 q 0.3375,0.81 -0.6075,1.35 -4.455,2.43 -11.1375,2.43 z m -8.0325,-20.8575 14.04,0 q 0.135,-8.4375 -6.615,-8.4375 -3.9825,0 -5.67,2.565 -1.62,2.4975 -1.755,5.8725 z"
             style="font-style:normal;font-variant:normal;font-weight:normal;font-stretch:normal;font-size:67.5px;font-family:'Crete Round';-inkscape-font-specification:'Crete Round';fill:#ffffff"
             id="path4280" />
          <path
             d="m 361.24941,282.40391 0,14.04 10.7325,0 -0.27,-3.4425 q -0.0675,-1.0125 0.945,-1.0125 l 3.78,0 q 1.0125,0 1.0125,1.0125 l 0,11.9475 q 0,1.0125 -1.0125,1.0125 l -3.78,0 q -1.0125,0 -0.945,-1.0125 l 0.2025,-3.24 -10.665,0 0,15.795 6.9525,0 q 1.0125,0 1.0125,1.0125 l 0,3.3075 q 0,1.0125 -1.0125,1.0125 l -18.09,0 q -1.0125,0 -1.0125,-1.0125 l 0,-3.3075 q 0,-1.0125 1.0125,-1.0125 l 3.5775,0 0,-35.0325 -3.5775,0 q -1.0125,0 -1.0125,-1.0125 l 0,-3.4425 q 0,-1.0125 1.0125,-1.0125 l 30.375,0 q 1.0125,0 1.0125,1.0125 l 0,9.045 q 0,1.0125 -1.0125,1.0125 l -3.78,0 q -1.0125,0 -0.945,-1.0125 l 0.27,-4.6575 -14.7825,0 z"
             style="font-style:normal;font-variant:normal;font-weight:normal;font-stretch:normal;font-size:67.5px;font-family:'Crete Round';-inkscape-font-specification:'Crete Round';fill:#ffffff"
             id="path4282" />
          <path
             d="m 397.63613,282.47141 0,35.0325 3.5775,0 q 1.0125,0 1.0125,1.0125 l 0,3.3075 q 0,1.0125 -1.0125,1.0125 l -14.715,0 q -1.0125,0 -1.0125,-1.0125 l 0,-3.3075 q 0,-1.0125 1.0125,-1.0125 l 3.5775,0 0,-35.0325 -3.5775,0 q -1.0125,0 -1.0125,-1.0125 l 0,-3.4425 q 0,-1.0125 1.0125,-1.0125 l 14.715,0 q 1.0125,0 1.0125,1.0125 l 0,3.4425 q 0,1.0125 -1.0125,1.0125 l -3.5775,0 z"
             style="font-style:normal;font-variant:normal;font-weight:normal;font-stretch:normal;font-size:67.5px;font-family:'Crete Round';-inkscape-font-specification:'Crete Round';fill:#ffffff"
             id="path4284" />
          <path
             d="m 407.63457,321.82391 0,-3.3075 q 0,-1.0125 1.0125,-1.0125 l 3.51,0 0,-35.1 -3.51,0 q -1.0125,0 -1.0125,-1.0125 l 0,-3.375 q 0,-1.0125 1.0125,-1.0125 8.64,-0.405 14.3775,-0.405 17.55,0 17.55,12.555 0,4.3875 -2.2275,7.7625 -2.2275,3.3075 -5.94,5.0625 l 7.8975,15.525 4.185,0 q 1.0125,0 1.0125,1.0125 l 0,3.3075 q 0,1.0125 -1.0125,1.0125 l -8.91,0 q -1.0125,0 -1.485,-0.8775 l -9.18,-18.1575 -1.35,0 q -2.16,0 -3.8475,-0.2025 l 0,13.905 4.2525,0 q 1.0125,0 1.0125,1.0125 l 0,3.3075 q 0,1.0125 -1.0125,1.0125 l -15.3225,0 q -1.0125,0 -1.0125,-1.0125 z m 12.0825,-39.6225 0,16.2675 q 0.54,0.0675 1.5525,0.0675 5.4675,0 8.505,-2.16 3.0375,-2.16 3.0375,-6.48 0,-7.695 -10.665,-7.695 l -2.43,0 z"
             style="font-style:normal;font-variant:normal;font-weight:normal;font-stretch:normal;font-size:67.5px;font-family:'Crete Round';-inkscape-font-specification:'Crete Round';fill:#ffffff"
             id="path4286" />
          <path
             d="m 465.56539,275.85641 q 4.995,0 9.99,1.485 0.945,0.27 0.945,1.215 l 0,9.315 q 0,1.0125 -1.0125,1.0125 l -3.78,0 q -1.0125,0 -0.945,-1.0125 l 0.2025,-4.5225 q -2.7,-1.62 -6.0075,-1.62 -3.3075,0 -5.3325,1.62 -1.9575,1.5525 -1.9575,4.3875 0,2.835 1.8225,4.6575 1.8225,1.755 5.1975,3.0375 3.375,1.2825 4.5225,1.755 1.1475,0.4725 3.3075,1.755 2.2275,1.2825 3.24,2.565 1.08,1.215 1.9575,3.3075 0.945,2.0925 0.945,4.6575 0,6.6825 -4.2525,10.4625 -4.185,3.7125 -11.9475,3.7125 -5.7375,0 -11.34,-1.755 -0.945,-0.27 -0.945,-1.215 l 0,-10.7325 q 0,-1.0125 1.0125,-1.0125 l 3.78,0 q 1.0125,0 0.945,1.0125 l -0.27,5.6025 q 0.8775,0.81 2.9025,1.5525 2.0925,0.675 4.2525,0.675 8.37,0 8.37,-6.8175 0,-3.3075 -2.2275,-5.1975 -2.2275,-1.9575 -5.805,-3.105 -3.51,-1.215 -5.3325,-2.0925 -1.8225,-0.945 -3.7125,-2.43 -3.78,-2.835 -3.78,-8.7075 0,-5.8725 4.05,-9.72 4.05,-3.8475 11.205,-3.8475 z"
             style="font-style:normal;font-variant:normal;font-weight:normal;font-stretch:normal;font-size:67.5px;font-family:'Crete Round';-inkscape-font-specification:'Crete Round';fill:#ffffff"
             id="path4288" />
          <path
             d="m 510.82941,322.83641 -18.765,0 q -1.0125,0 -1.0125,-1.0125 l 0,-3.3075 q 0,-1.0125 1.0125,-1.0125 l 5.535,0 0,-35.1 -9.1125,0 0.3375,5.265 q 0.0675,1.0125 -0.945,1.0125 l -4.1175,0 q -1.0125,0 -1.0125,-1.0125 l 0,-9.6525 q 0,-1.0125 1.0125,-1.0125 l 35.3025,0 q 1.0125,0 1.0125,1.0125 l 0,9.6525 q 0,1.0125 -1.0125,1.0125 l -4.1175,0 q -1.0125,0 -0.945,-1.0125 l 0.3375,-5.265 -9.1125,0 0,35.1 5.6025,0 q 1.0125,0 1.0125,1.0125 l 0,3.3075 q 0,1.0125 -1.0125,1.0125 z"
             style="font-style:normal;font-variant:normal;font-weight:normal;font-stretch:normal;font-size:67.5px;font-family:'Crete Round';-inkscape-font-specification:'Crete Round';fill:#ffffff"
             id="path4290" />
        </g>
        <path
           style="opacity:1;fill:#d8b600;fill-opacity:1;fill-rule:evenodd;stroke:#d8b600;stroke-width:0.25253814;stroke-linecap:round;stroke-linejoin:round;stroke-miterlimit:4;stroke-dasharray:none;stroke-opacity:1"
           d="m 560.6615,252.73488 c 0,-28.06343 0.0159,-35.13511 0.0789,-35.13806 0.0434,-0.002 0.43012,-0.0387 0.85936,-0.0815 0.53562,-0.0534 0.78691,-0.0572 0.80107,-0.0121 0.0113,0.0361 0.23709,1.13111 0.50167,2.43326 3.61179,17.77585 7.37691,28.67103 12.68707,36.71273 2.57256,3.8959 5.27854,6.83247 8.52639,9.25298 4.55754,3.39657 10.03812,5.44723 16.25714,6.08291 2.50929,0.25649 6.11575,0.28598 8.61787,0.0705 0.59031,-0.0509 1.17982,-0.0933 1.31004,-0.0943 l 0.23675,-0.002 0,7.95495 0,7.95495 -24.93814,0 -24.93814,0 0,-35.13437 z m 2.01772,-25.49793 c -10e-4,-0.0393 -0.0553,-0.28463 -0.11971,-0.54506 l -0.11712,-0.47351 -0.007,0.57808 c -0.006,0.54853 -1.1e-4,0.5764 0.11971,0.54507 0.0695,-0.0182 0.1251,-0.0652 0.12368,-0.10458 z"
           id="path4227"
           inkscape:connector-curvature="0" />
        <path
           style="opacity:1;fill:#d8b600;fill-opacity:1;fill-rule:evenodd;stroke:#d8b600;stroke-width:0.25253814;stroke-linecap:round;stroke-linejoin:round;stroke-miterlimit:4;stroke-dasharray:none;stroke-opacity:1"
           d="m 545.72226,252.73488 c 0,-28.06343 -0.0159,-35.13511 -0.0789,-35.13806 -0.0434,-0.002 -0.43012,-0.0387 -0.85936,-0.0815 -0.53562,-0.0534 -0.78691,-0.0572 -0.80107,-0.0121 -0.0113,0.0361 -0.23709,1.13111 -0.50167,2.43326 -3.61179,17.77585 -7.37691,28.67103 -12.68707,36.71273 -2.57256,3.8959 -5.27854,6.83247 -8.52639,9.25298 -4.55754,3.39657 -10.03812,5.44723 -16.25714,6.08291 -2.50929,0.25649 -6.11575,0.28598 -8.61787,0.0705 -0.59031,-0.0509 -1.17982,-0.0933 -1.31004,-0.0943 l -0.23675,-0.002 0,7.95495 0,7.95495 24.93814,0 24.93814,0 0,-35.13437 z m -2.01772,-25.49793 c 0.001,-0.0393 0.0553,-0.28463 0.11971,-0.54506 l 0.11712,-0.47351 0.007,0.57808 c 0.006,0.54853 1.1e-4,0.5764 -0.11971,0.54507 -0.0695,-0.0182 -0.1251,-0.0652 -0.12368,-0.10458 z"
           id="path4227-1"
           inkscape:connector-curvature="0" />
        <rect
           style="opacity:1;fill:#d8b600;fill-opacity:1;fill-rule:evenodd;stroke:#d8b600;stroke-width:0;stroke-linecap:round;stroke-linejoin:round;stroke-miterlimit:4;stroke-dasharray:none;stroke-opacity:1"
           id="rect4259"
           width="4.5961933"
           height="71.064232"
           x="550.83618"
           y="217.13853" />
      </g>
    </g>
  </g>
</svg>
